<svg width="32" height="32" viewBox="140 30 192 192" fill="none" xmlns="http://www.w3.org/2000/svg">
  <rect x="140" y="30" width="192" height="192" fill="#2c2c2c"/>
  <path d="M245.667 45.4956C245.564 45.6419 245.449 45.7827 245.318 45.9136L202.073 89.1587H214.427L264.377 39.2085H273.305L255.672 56.8403C255.57 56.9848 255.455 57.1231 255.326 57.2524L223.419 89.1587H235.775L285.726 39.2085H294.653L265.68 68.1802C265.578 68.3251 265.463 68.4645 265.333 68.5942L244.769 89.1587H257.123L307.074 39.2085H316L275.688 79.52C275.585 79.6652 275.47 79.8042 275.34 79.9341L266.116 89.1587H272.285V95.3462L322.313 45.3179V54.2446L285.696 90.8608C285.593 91.0058 285.479 91.1451 285.349 91.2749L272.285 104.339V116.695L322.313 66.6665V75.5933L295.698 102.208C295.596 102.35 295.483 102.488 295.355 102.616L272.285 125.686V138.042L322.313 88.0142V96.9409L305.712 113.541C305.609 113.686 305.494 113.827 305.364 113.958L272.285 147.036V159.39L322.313 109.362V118.29L315.715 124.886C315.613 125.03 315.499 125.168 315.37 125.297L279.682 160.986H272.285V161.058H272.276V168.392L229.181 211.486H220.254L270.682 161.058H258.263L207.834 211.486H198.908L249.335 161.058H236.912L186.485 211.486H177.557L227.985 161.058H215.566L165.138 211.486H156.21L206.638 161.058H200.385V154.889L150.12 205.154V196.226L200.332 146.014V145.949L200.385 145.896V133.542L150.12 183.806V174.879L200.332 124.667V124.601L200.385 124.548V112.193L150.12 162.458V153.531L200.332 103.319V103.253L200.385 103.201V90.8462L150.12 141.111V132.35L192.985 89.4858H200.332V81.9048L243.029 39.2085H251.955L245.667 45.4956ZM271.879 190.137L250.531 211.486H241.603L271.879 181.21V190.137ZM271.879 211.486H262.952L271.879 202.559V211.486ZM322.313 139.638L300.966 160.986H292.038L322.313 130.711V139.638ZM322.313 160.986H313.386L322.313 152.058V160.986ZM150.12 119.761V110.833L171.469 89.4858H180.396L150.12 119.761ZM150.12 98.4126V89.4858H159.048L150.12 98.4126ZM200.332 69.4829V60.5562L221.68 39.2085H230.608L200.332 69.4829ZM200.332 48.1362V39.2085H209.26L200.332 48.1362Z" fill="white"/>
</svg>
