<svg width="900" height="250" viewBox="0 0 900 250" fill="none" role="img" aria-label="Modular Marketing">
<mask id="path-2-outside-1_1_100" maskUnits="userSpaceOnUse" x="149.12" y="38.2085" width="175" height="175" fill="black">
<rect fill="white" x="149.12" y="38.2085" width="175" height="175"/>
<path d="M245.667 45.4956C245.564 45.6419 245.449 45.7827 245.318 45.9136L202.073 89.1587H214.427L264.377 39.2085H273.305L255.672 56.8403C255.57 56.9848 255.455 57.1231 255.326 57.2524L223.419 89.1587H235.775L285.726 39.2085H294.653L265.68 68.1802C265.578 68.3251 265.463 68.4645 265.333 68.5942L244.769 89.1587H257.123L307.074 39.2085H316L275.688 79.52C275.585 79.6652 275.47 79.8042 275.34 79.9341L266.116 89.1587H272.285V95.3462L322.313 45.3179V54.2446L285.696 90.8608C285.593 91.0058 285.479 91.1451 285.349 91.2749L272.285 104.339V116.695L322.313 66.6665V75.5933L295.698 102.208C295.596 102.35 295.483 102.488 295.355 102.616L272.285 125.686V138.042L322.313 88.0142V96.9409L305.712 113.541C305.609 113.686 305.494 113.827 305.364 113.958L272.285 147.036V159.39L322.313 109.362V118.29L315.715 124.886C315.613 125.03 315.499 125.168 315.37 125.297L279.682 160.986H272.285V161.058H272.276V168.392L229.181 211.486H220.254L270.682 161.058H258.263L207.834 211.486H198.908L249.335 161.058H236.912L186.485 211.486H177.557L227.985 161.058H215.566L165.138 211.486H156.21L206.638 161.058H200.385V154.889L150.12 205.154V196.226L200.332 146.014V145.949L200.385 145.896V133.542L150.12 183.806V174.879L200.332 124.667V124.601L200.385 124.548V112.193L150.12 162.458V153.531L200.332 103.319V103.253L200.385 103.201V90.8462L150.12 141.111V132.35L192.985 89.4858H200.332V81.9048L243.029 39.2085H251.955L245.667 45.4956ZM271.879 190.137L250.531 211.486H241.603L271.879 181.21V190.137ZM271.879 211.486H262.952L271.879 202.559V211.486ZM322.313 139.638L300.966 160.986H292.038L322.313 130.711V139.638ZM322.313 160.986H313.386L322.313 152.058V160.986ZM150.12 119.761V110.833L171.469 89.4858H180.396L150.12 119.761ZM150.12 98.4126V89.4858H159.048L150.12 98.4126ZM200.332 69.4829V60.5562L221.68 39.2085H230.608L200.332 69.4829ZM200.332 48.1362V39.2085H209.26L200.332 48.1362Z"/>
</mask>
<path d="M245.667 45.4956C245.564 45.6419 245.449 45.7827 245.318 45.9136L202.073 89.1587H214.427L264.377 39.2085H273.305L255.672 56.8403C255.57 56.9848 255.455 57.1231 255.326 57.2524L223.419 89.1587H235.775L285.726 39.2085H294.653L265.68 68.1802C265.578 68.3251 265.463 68.4645 265.333 68.5942L244.769 89.1587H257.123L307.074 39.2085H316L275.688 79.52C275.585 79.6652 275.47 79.8042 275.34 79.9341L266.116 89.1587H272.285V95.3462L322.313 45.3179V54.2446L285.696 90.8608C285.593 91.0058 285.479 91.1451 285.349 91.2749L272.285 104.339V116.695L322.313 66.6665V75.5933L295.698 102.208C295.596 102.35 295.483 102.488 295.355 102.616L272.285 125.686V138.042L322.313 88.0142V96.9409L305.712 113.541C305.609 113.686 305.494 113.827 305.364 113.958L272.285 147.036V159.39L322.313 109.362V118.29L315.715 124.886C315.613 125.03 315.499 125.168 315.37 125.297L279.682 160.986H272.285V161.058H272.276V168.392L229.181 211.486H220.254L270.682 161.058H258.263L207.834 211.486H198.908L249.335 161.058H236.912L186.485 211.486H177.557L227.985 161.058H215.566L165.138 211.486H156.21L206.638 161.058H200.385V154.889L150.12 205.154V196.226L200.332 146.014V145.949L200.385 145.896V133.542L150.12 183.806V174.879L200.332 124.667V124.601L200.385 124.548V112.193L150.12 162.458V153.531L200.332 103.319V103.253L200.385 103.201V90.8462L150.12 141.111V132.35L192.985 89.4858H200.332V81.9048L243.029 39.2085H251.955L245.667 45.4956ZM271.879 190.137L250.531 211.486H241.603L271.879 181.21V190.137ZM271.879 211.486H262.952L271.879 202.559V211.486ZM322.313 139.638L300.966 160.986H292.038L322.313 130.711V139.638ZM322.313 160.986H313.386L322.313 152.058V160.986ZM150.12 119.761V110.833L171.469 89.4858H180.396L150.12 119.761ZM150.12 98.4126V89.4858H159.048L150.12 98.4126ZM200.332 69.4829V60.5562L221.68 39.2085H230.608L200.332 69.4829ZM200.332 48.1362V39.2085H209.26L200.332 48.1362Z" fill="currentColor"/>
<path d="M245.667 45.4956L244.96 44.7884L244.899 44.8493L244.85 44.9197L245.667 45.4956ZM245.318 45.9136L246.025 46.6207L246.025 46.6206L245.318 45.9136ZM202.073 89.1587L201.366 88.4516L199.658 90.1587H202.073V89.1587ZM214.427 89.1587V90.1587H214.841L215.134 89.8658L214.427 89.1587ZM264.377 39.2085V38.2085H263.963L263.67 38.5014L264.377 39.2085ZM273.305 39.2085L274.012 39.9156L275.719 38.2085H273.305V39.2085ZM255.672 56.8403L254.965 56.1332L254.905 56.1934L254.856 56.2629L255.672 56.8403ZM255.326 57.2524L256.033 57.9595L256.033 57.9595L255.326 57.2524ZM223.419 89.1587L222.712 88.4516L221.005 90.1587H223.419V89.1587ZM235.775 89.1587V90.1587H236.189L236.482 89.8658L235.775 89.1587ZM285.726 39.2085V38.2085H285.312L285.019 38.5014L285.726 39.2085ZM294.653 39.2085L295.36 39.9156L297.067 38.2085H294.653V39.2085ZM265.68 68.1802L264.973 67.4731L264.913 67.5334L264.863 67.6032L265.68 68.1802ZM265.333 68.5942L266.04 69.3013L266.041 69.3012L265.333 68.5942ZM244.769 89.1587L244.062 88.4516L242.355 90.1587H244.769V89.1587ZM257.123 89.1587V90.1587H257.538L257.831 89.8658L257.123 89.1587ZM307.074 39.2085V38.2085H306.659L306.367 38.5014L307.074 39.2085ZM316 39.2085L316.707 39.9156L318.415 38.2085H316V39.2085ZM275.688 79.52L274.981 78.8129L274.92 78.8734L274.871 78.9432L275.688 79.52ZM275.34 79.9341L276.047 80.6412L276.047 80.641L275.34 79.9341ZM266.116 89.1587L265.408 88.4516L263.701 90.1587H266.116V89.1587ZM272.285 89.1587H273.285V88.1587H272.285V89.1587ZM272.285 95.3462H271.285V97.7604L272.992 96.0533L272.285 95.3462ZM322.313 45.3179H323.313V42.9037L321.606 44.6108L322.313 45.3179ZM322.313 54.2446L323.02 54.9517L323.313 54.6589V54.2446H322.313ZM285.696 90.8608L284.989 90.1537L284.928 90.2141L284.879 90.2839L285.696 90.8608ZM285.349 91.2749L286.056 91.982L286.056 91.9818L285.349 91.2749ZM272.285 104.339L271.577 103.632L271.285 103.925V104.339H272.285ZM272.285 116.695H271.285V119.109L272.992 117.402L272.285 116.695ZM322.313 66.6665H323.313V64.2523L321.606 65.9594L322.313 66.6665ZM322.313 75.5933L323.02 76.3004L323.313 76.0075V75.5933H322.313ZM295.698 102.208L294.991 101.5L294.931 101.56L294.882 101.628L295.698 102.208ZM295.355 102.616L296.062 103.323L296.062 103.323L295.355 102.616ZM272.285 125.686L271.577 124.979L271.285 125.272V125.686H272.285ZM272.285 138.042H271.285V140.457L272.992 138.75L272.285 138.042ZM322.313 88.0142H323.313V85.5999L321.606 87.3071L322.313 88.0142ZM322.313 96.9409L323.02 97.648L323.313 97.3551V96.9409H322.313ZM305.712 113.541L305.005 112.833L304.944 112.894L304.895 112.964L305.712 113.541ZM305.364 113.958L306.071 114.665L306.071 114.665L305.364 113.958ZM272.285 147.036L271.577 146.329L271.285 146.621V147.036H272.285ZM272.285 159.39H271.285V161.804L272.992 160.097L272.285 159.39ZM322.313 109.362H323.313V106.948L321.606 108.655L322.313 109.362ZM322.313 118.29L323.02 118.997L323.313 118.704V118.29H322.313ZM315.715 124.886L315.008 124.179L314.948 124.239L314.899 124.308L315.715 124.886ZM315.37 125.297L316.078 126.004L316.078 126.004L315.37 125.297ZM279.682 160.986V161.986H280.096L280.389 161.693L279.682 160.986ZM272.285 160.986V159.986H271.285V160.986H272.285ZM272.285 161.058V162.058H273.285V161.058H272.285ZM272.276 161.058V160.058H271.276V161.058H272.276ZM272.276 168.392L272.983 169.099L273.276 168.806V168.392H272.276ZM229.181 211.486V212.486H229.595L229.888 212.193L229.181 211.486ZM220.254 211.486L219.547 210.779L217.84 212.486H220.254V211.486ZM270.682 161.058L271.389 161.765L273.096 160.058H270.682V161.058ZM258.263 161.058V160.058H257.849L257.556 160.351L258.263 161.058ZM207.834 211.486V212.486H208.249L208.541 212.193L207.834 211.486ZM198.908 211.486L198.2 210.779L196.493 212.486H198.908V211.486ZM249.335 161.058L250.042 161.765L251.75 160.058H249.335V161.058ZM236.912 161.058V160.058H236.498L236.205 160.351L236.912 161.058ZM186.485 211.486V212.486H186.899L187.192 212.193L186.485 211.486ZM177.557 211.486L176.85 210.779L175.143 212.486H177.557V211.486ZM227.985 161.058L228.692 161.765L230.399 160.058H227.985V161.058ZM215.566 161.058V160.058H215.152L214.859 160.351L215.566 161.058ZM165.138 211.486V212.486H165.552L165.845 212.193L165.138 211.486ZM156.21 211.486L155.503 210.779L153.796 212.486H156.21V211.486ZM206.638 161.058L207.345 161.765L209.052 160.058H206.638V161.058ZM200.385 161.058H199.385V162.058H200.385V161.058ZM200.385 154.889H201.385V152.475L199.678 154.182L200.385 154.889ZM150.12 205.154H149.12V207.568L150.828 205.861L150.12 205.154ZM150.12 196.226L149.413 195.519L149.12 195.812V196.226H150.12ZM200.332 146.014L201.04 146.721L201.332 146.428V146.014H200.332ZM200.332 145.949L199.625 145.242L199.332 145.535V145.949H200.332ZM200.385 145.896L201.092 146.603L201.385 146.31V145.896H200.385ZM200.385 133.542H201.385V131.127L199.678 132.834L200.385 133.542ZM150.12 183.806H149.12V186.22L150.828 184.513L150.12 183.806ZM150.12 174.879L149.413 174.172L149.12 174.465V174.879H150.12ZM200.332 124.667L201.04 125.375L201.332 125.082V124.667H200.332ZM200.332 124.601L199.625 123.894L199.332 124.187V124.601H200.332ZM200.385 124.548L201.092 125.255L201.385 124.963V124.548H200.385ZM200.385 112.193H201.385V109.779L199.678 111.486L200.385 112.193ZM150.12 162.458H149.12V164.872L150.828 163.165L150.12 162.458ZM150.12 153.531L149.413 152.824L149.12 153.117V153.531H150.12ZM200.332 103.319L201.04 104.026L201.332 103.733V103.319H200.332ZM200.332 103.253L199.625 102.546L199.332 102.839V103.253H200.332ZM200.385 103.201L201.092 103.908L201.385 103.615V103.201H200.385ZM200.385 90.8462H201.385V88.432L199.678 90.1391L200.385 90.8462ZM150.12 141.111H149.12V143.525L150.828 141.818L150.12 141.111ZM150.12 132.35L149.413 131.643L149.12 131.936V132.35H150.12ZM192.985 89.4858V88.4858H192.571L192.278 88.7787L192.985 89.4858ZM200.332 89.4858V90.4858H201.332V89.4858H200.332ZM200.332 81.9048L199.625 81.1977L199.332 81.4906V81.9048H200.332ZM243.029 39.2085V38.2085H242.614L242.322 38.5014L243.029 39.2085ZM251.955 39.2085L252.662 39.9157L254.37 38.2085H251.955V39.2085ZM271.879 190.137L272.586 190.844L272.879 190.551V190.137H271.879ZM250.531 211.486V212.486H250.945L251.238 212.193L250.531 211.486ZM241.603 211.486L240.896 210.779L239.189 212.486H241.603V211.486ZM271.879 181.21H272.879V178.796L271.172 180.503L271.879 181.21ZM271.879 211.486V212.486H272.879V211.486H271.879ZM262.952 211.486L262.244 210.779L260.537 212.486H262.952V211.486ZM271.879 202.559H272.879V200.145L271.172 201.852L271.879 202.559ZM322.313 139.638L323.02 140.345L323.313 140.052V139.638H322.313ZM300.966 160.986V161.986H301.38L301.673 161.693L300.966 160.986ZM292.038 160.986L291.331 160.279L289.624 161.986H292.038V160.986ZM322.313 130.711H323.313V128.297L321.606 130.004L322.313 130.711ZM322.313 160.986V161.986H323.313V160.986H322.313ZM313.386 160.986L312.679 160.279L310.972 161.986H313.386V160.986ZM322.313 152.058H323.313V149.644L321.606 151.351L322.313 152.058ZM150.12 119.761H149.12V122.175L150.828 120.468L150.12 119.761ZM150.12 110.833L149.413 110.126L149.12 110.419V110.833H150.12ZM171.469 89.4858V88.4858H171.055L170.762 88.7787L171.469 89.4858ZM180.396 89.4858L181.103 90.1929L182.81 88.4858H180.396V89.4858ZM150.12 98.4126H149.12V100.827L150.828 99.1197L150.12 98.4126ZM150.12 89.4858V88.4858H149.12V89.4858H150.12ZM159.048 89.4858L159.755 90.193L161.463 88.4858H159.048V89.4858ZM200.332 69.4829H199.332V71.8971L201.039 70.19L200.332 69.4829ZM200.332 60.5562L199.625 59.849L199.332 60.1419V60.5562H200.332ZM221.68 39.2085V38.2085H221.266L220.973 38.5014L221.68 39.2085ZM230.608 39.2085L231.315 39.9156L233.022 38.2085H230.608V39.2085ZM200.332 48.1362H199.332V50.5504L201.04 48.8433L200.332 48.1362ZM200.332 39.2085V38.2085H199.332V39.2085H200.332ZM209.26 39.2085L209.967 39.9156L211.674 38.2085H209.26V39.2085Z" fill="white" mask="url(#path-2-outside-1_1_100)"/>
<path d="M460.088 97.2192C476.645 97.2192 488.902 109.537 488.902 125.347C488.902 141.235 476.567 153.475 460.088 153.475C443.458 153.475 431.276 141.387 431.276 125.347C431.276 109.383 443.534 97.2193 460.088 97.2192ZM567.07 98.2085V131.665C567.07 134.663 567.865 137.018 569.361 138.621C570.852 140.217 573.103 141.134 576.16 141.134C579.216 141.134 581.467 140.217 582.958 138.612C584.454 137 585.25 134.626 585.25 131.588V98.2085H598.351V131.665C598.351 138.136 596.14 143.598 592.237 147.442C588.335 151.285 582.779 153.475 576.16 153.475C569.503 153.475 563.947 151.286 560.054 147.452C556.161 143.617 553.968 138.174 553.968 131.741V98.2085H567.07ZM379.624 98.2085L379.749 98.5239L393.881 134.043L406.289 98.5435L406.405 98.2085H422.178V152.486H409.533V123.409L398.933 152.159L398.813 152.486H388.458L388.333 152.168L376.511 122.102V152.486H363.943V98.2085H379.624ZM517.494 98.2085C526.127 98.2085 533.111 100.967 537.939 105.736C542.766 110.505 545.394 117.242 545.394 125.119C545.394 133.483 542.77 140.338 537.938 145.102C533.106 149.865 526.12 152.486 517.494 152.486H498.043V98.2085H517.494ZM622.275 98.2085V140.754H643.129V152.486H609.25V98.2085H622.275ZM682.115 98.2085L682.231 98.5464L700.574 151.823L700.802 152.486H686.956L686.841 152.146L683.759 143.048H664.082L661.075 152.143L660.961 152.486H647.572L647.796 151.825L665.911 98.5474L666.026 98.2085H682.115ZM729.101 98.2085C740.221 98.2085 748.477 105.549 748.477 116.291C748.477 123.44 744.553 129.117 739.226 132.018L750.315 151.741L750.734 152.486H736.177L736.039 152.212L727.12 134.676H720.773V152.486H707.748V98.2085H729.101ZM511.068 141.059H516.961C520.756 141.059 524.467 139.998 527.224 137.506C529.971 135.023 531.836 131.059 531.836 125.119C531.835 119.489 529.995 115.638 527.255 113.19C524.506 110.732 520.791 109.636 516.961 109.636H511.068V141.059ZM460.088 109.788C451.093 109.788 444.757 116.552 444.757 125.347C444.757 134.291 451.09 140.907 460.088 140.907C469.009 140.907 475.343 134.293 475.343 125.347C475.343 116.55 469.006 109.788 460.088 109.788ZM667.687 131.317H680.155L673.957 112.507L667.687 131.317ZM720.773 123.401H728.036C730.104 123.401 731.875 122.767 733.125 121.587C734.37 120.412 735.147 118.649 735.147 116.291C735.147 114.203 734.43 112.514 733.192 111.345C731.951 110.174 730.141 109.484 727.883 109.484H720.773V123.401Z" fill="currentColor" stroke="white"/>
</svg>
